<?xml version="1.0" encoding="utf-8"?>
<!-- Generator: Adobe Illustrator 17.0.0, SVG Export Plug-In . SVG Version: 6.00 Build 0)  -->
<!DOCTYPE svg PUBLIC "-//W3C//DTD SVG 1.1//EN" "http://www.w3.org/Graphics/SVG/1.1/DTD/svg11.dtd">
<svg version="1.1" id="Layer_1" xmlns="http://www.w3.org/2000/svg" xmlns:xlink="http://www.w3.org/1999/xlink" x="0px" y="0px"
	 width="270px" height="90px" viewBox="0 0 270 90" enable-background="new 0 0 270 90" xml:space="preserve">
<g>
		<g>
			<path fill="#F05F22" d="M24.455,81.355c-0.002,0.017-0.004,0.031-0.004,0.047c0,3.481,2.822,6.303,6.305,6.303
				c3.481,0,6.303-2.822,6.303-6.303c0-0.016-0.004-0.03-0.004-0.047H24.455z M63.094,81.355h-12.6c0,0.017-0.004,0.031-0.004,0.047
				c0,3.481,2.826,6.303,6.304,6.303c3.479,0,6.301-2.822,6.301-6.303C63.095,81.386,63.094,81.371,63.094,81.355z"/>
			<path fill="#F05F22" d="M92.957,18.41l-20.47,56.688c0,0,7.032,0,9.021,0c2.516,0,5.059-1.705,5.997-4.307
				C88.34,68.476,110.963,5.81,110.963,5.81H60.524c0,0,2.422,6.713,3.061,8.48c0.668,1.85,2.696,4.118,5.949,4.118
				C71.985,18.409,92.957,18.41,92.957,18.41z"/>
			<path fill="#F05F22" d="M72.66,56.131L84.015,24.71H1.02c0,0,2.243,6.284,3.044,8.503c0.8,2.219,3.135,4.121,5.928,4.121
				c1.37,0,10.109,0,10.109,0v0.002h45.928c0,0-1.336,3.855-1.56,4.399c-0.229,0.545-1.161,1.864-2.923,1.864s-53.724,0-53.724,0
				s8.951,24.679,9.877,27.319c0.93,2.641,3.587,4.181,5.928,4.181s10.075,0,10.075,0h32.123l4.59-12.638c0,0-39.038,0-40.186,0
				c-1.229,0-2.477-0.728-2.974-2.056c-0.805-2.258-1.53-4.273-1.53-4.273L72.66,56.131L72.66,56.131z"/>
		</g>
	<g>
		<path fill="#ffffff" d="M95.234,74.247h133.162c0,0,10.087,0,12.94,0c3.61,0,7.257-2.446,8.603-6.178
			c1.197-3.323,17.288-47.9,17.288-47.9s-140.221,0-144.005,0c-7.066,0-9.423,5.479-10.678,7.865
			C111.075,30.821,95.234,74.247,95.234,74.247z"/>
	</g>
	<g>
		<path fill="#00599D" d="M118.583,64.689l3.557-10.152l19.304-8.971l2.777-2.295l1.245-3.5l-1.246-1.901h-8.629l-6.707,1.901
			l0.249-6.56l8.021-2.225h12.768l3.882,6.073l-3.042,8.554l-6.557,5.262l-14.827,6.93h17.094l-2.4,6.884H118.583z"/>
		<path fill="#00599D" d="M155.073,37.871l2.446-6.884h25.002l-2.937,8.345l-16.494,17.57l-2.699,7.787h-7.396l3.366-9.596
			l16.131-17.223L155.073,37.871L155.073,37.871z"/>
		<path fill="#00599D" d="M169.859,63.415l1.432-4.034l2.725-1.993h3.86l1.509,1.993l-1.432,4.034l-2.678,1.993h-4.093
			L169.859,63.415z"/>
		<path fill="#00599D" d="M183.424,59.614l7.3-20.7h7.396L191.753,56.9l0.595,0.906h5.209l2.991-2.457l5.805-16.434h7.396
			l-6.296,17.755l-0.86,7.395l-6.331,1.344l0.469-3.708l-3.69,2.99h-10.234L183.424,59.614z"/>
		<path fill="#00599D" d="M211.791,59.614l5.512-15.625l6.941-5.074h12.722l3.337,5.076l-4.467,12.678l-0.885,7.395l-6.33,1.344
			l0.468-3.708l-3.69,2.99h-10.233L211.791,59.614z M220.145,56.904l0.609,0.902h5.186l2.991-2.457l3.06-8.646l-0.561-0.905
			h-6.42l-1.253,0.907L220.145,56.904z"/>
	</g>
</g>
</svg>
