<?xml version="1.0" encoding="UTF-8"?>
<!DOCTYPE svg PUBLIC "-//W3C//DTD SVG 1.1//EN" "http://www.w3.org/Graphics/SVG/1.1/DTD/svg11.dtd">
<!-- Creator: CorelDRAW -->
<svg xmlns="http://www.w3.org/2000/svg" xml:space="preserve" width="86.8768mm" height="21.9644mm" style="shape-rendering:geometricPrecision; text-rendering:geometricPrecision; image-rendering:optimizeQuality; fill-rule:evenodd; clip-rule:evenodd"
viewBox="0 0 35.9483 9.08854"
 xmlns:xlink="http://www.w3.org/1999/xlink">
 <defs>
  <style type="text/css">
   <![CDATA[
    .str0 {stroke:#FEFEFE;stroke-width:0.437909}
    .fil2 {fill:none}
    .fil1 {fill:#FEFEFE}
    .fil0 {fill:#191497}
   ]]>
  </style>
 </defs>
 <g id="Layer_x0020_1">
  <metadata id="CorelCorpID_0Corel-Layer"/>
  <path class="fil0" d="M21.4161 2.68977l0 0.398144 0.92332 0 0 1.15376 -0.92332 0 0 2.78543 -1.34497 0 0 -2.78543 -0.453715 0 0 -1.15376 0.453715 0c0,-0.294574 -4.13785e-005,-0.294574 -4.13785e-005,-0.294574 0.0556541,-1.16195 1.03455,-2.10108 2.21267,-2.10108l4.13785e-005 1.16985c-0.461577,0 -0.835887,0.366117 -0.867707,0.827653l0 0z"/>
  <path class="fil0" d="M26.9393 5.02182l0 -4.15444 -1.34472 0 0 4.05062c0.0611574,1.21458 1.07696,2.09326 2.26026,2.09326l0 -1.17805c-0.501714,-0.0396406 -0.867376,-0.254478 -0.915582,-0.811391l4.13785e-005 0z"/>
  <path class="fil0" d="M29.757 3.09581l1.33686 0c0,0.0076964 -4.13785e-005,0.0076964 -4.13785e-005,0.0076964 0.366117,0 0.366117,0 0.366117,0 1.15438,0 2.14891,0.947443 2.14055,2.10103l4.13785e-005 1.82256 -1.34459 0 0 -1.92576c0,-0.342324 -0.413702,-0.811846 -0.883596,-0.827942 -0.278477,-0.00765502 -0.278519,-0.00761364 -0.278519,-0.00761364l4.13785e-005 2.76131 -1.33686 0 0 -3.93129z"/>
  <polygon class="fil0" points="29.4742,3.0887 29.478,7.01895 28.1413,7.01895 28.1371,3.0887 "/>
  <path class="fil0" d="M35.9403 2.93655c-1.12955,0 -2.04521,0.923071 -2.04521,2.05304 0,1.09036 0.922823,2.08527 2.04521,2.04534l0 -1.16154c-0.254271,0 -0.525052,-0.119418 -0.684193,-0.286794l0.684193 0 0.00802743 -1.16952 -0.684152 0c0.159266,-0.199196 0.429592,-0.318573 0.676125,-0.318573l0 -1.16195z"/>
  <path class="fil0" d="M24.4083 4.24167l0.923444 0 0 -1.15525 -0.923444 0 0 -2.21905 -1.35246 0 0.00802743 2.22103 -0.453674 0 0 1.15326c0,0 0,0 0.453674,0 0,0 0.00699297,0 0.00699297,0.668097 0.0241237,0.557492 0.255471,1.05888 0.62916,1.44092 0.435467,0.444033 1.00678,0.660566 1.62382,0.660566l0 -1.17805c0,0 0,0 -0.0556127,0 -0.461867,0 -0.827984,-0.365951 -0.859928,-0.819377l0 -0.772164z"/>
  <path class="fil0" d="M17.421 5.87339c-0.493397,0 -0.891045,-0.397978 -0.891045,-0.883803 0,-0.485039 0.397647,-0.891086 0.891045,-0.891086 0.493687,0 0.891293,0.406047 0.891293,0.891086 0,0.485825 -0.397606,0.883803 -0.891293,0.883803zm0 -2.93684c-1.12198,0 -2.04513,0.923071 -2.04513,2.05304 4.13785e-005,1.13013 0.923154,2.04534 2.04513,2.04534 1.12194,0 2.04538,-0.91521 2.04538,-2.04534 0,-1.12996 -0.923444,-2.05304 -2.04538,-2.05304z"/>
  <path class="fil0" d="M12.572 4.04173c-0.908465,-0.228616 -1.56568,-1.03504 -1.56568,-1.9884 0,-1.13783 0.923403,-2.05333 2.05333,-2.05333 1.13042,0 2.05333,0.915499 2.05333,2.05333l-1.1538 0c0,-0.49377 -0.413702,-0.891376 -0.899527,-0.891376 -0.492983,0 -0.891169,0.397606 -0.891169,0.891376 0,0.259609 0.11077,0.491825 0.288532,0.653325 0.314435,0.286132 0.659408,0.195969 1.03554,0.277277 0.926299,0.201637 1.62042,1.0259 1.62042,2.00566 0,1.13013 -0.922906,2.0616 -2.06106,2.0616 -1.13001,0 -2.05333,-0.931471 -2.05333,-2.0616l1.16178 0c0,0.493521 0.39802,0.891789 0.891541,0.891789 0.493563,0 0.891251,-0.398268 0.891251,-0.891789 0,-0.284601 -0.136218,-0.539286 -0.354779,-0.701779 -0.318035,-0.236437 -0.657422,-0.155625 -1.01638,-0.246078l0 0z"/>
  <path class="fil0" d="M11.3111 8.98021l0 -1.25021 0.183265 0 0.217734 0.885252c0.0200272,0.082426 0.0347166,0.143997 0.0439026,0.185045 0.0104688,-0.0455991 0.0267305,-0.112343 0.0489921,-0.200437l0.220216 -0.869859 0.163735 0 0 1.25021 -0.117308 0 0 -1.04634 -0.267305 1.04634 -0.109819 0 -0.266105 -1.0643 0 1.0643 -0.117308 0z"/>
  <path class="fil0" d="M13.502 8.37377c0,0.150825 0.0297925,0.269415 0.0894603,0.356103 0.059585,0.0866879 0.134356,0.130011 0.224313,0.130011 0.0915706,0 0.167004,-0.0437784 0.226216,-0.131294 0.0591712,-0.0875155 0.0887983,-0.211692 0.0887983,-0.372613 0,-0.101791 -0.0126618,-0.190589 -0.0379855,-0.266436 -0.0252823,-0.0759709 -0.0623574,-0.134853 -0.11106,-0.176479 -0.0487439,-0.0419164 -0.103488,-0.0627298 -0.164066,-0.0627298 -0.0862328,0 -0.160383,0.0402199 -0.222451,0.120618 -0.0621505,0.0803984 -0.0932258,0.214672 -0.0932258,0.40282zm-0.12546 -0.00252409c0,-0.20743 0.0410061,-0.3698 0.122977,-0.487273 0.0819708,-0.117474 0.187776,-0.17619 0.317539,-0.17619 0.0848673,0 0.161418,0.0276408 0.229651,0.0827984 0.068109,0.0551989 0.120163,0.132039 0.155956,0.230685 0.0357096,0.0986463 0.0535852,0.210534 0.0535852,0.335538 0,0.126742 -0.0188272,0.240202 -0.0564403,0.340297 -0.0376544,0.100053 -0.0910327,0.175776 -0.160011,0.227209 -0.0690193,0.0513507 -0.143501,0.0771295 -0.223402,0.0771295 -0.0865638,0 -0.163983,-0.0283443 -0.232133,-0.0852397 -0.0681918,-0.0568954 -0.119915,-0.134439 -0.155045,-0.232795 -0.0351303,-0.0983567 -0.0526748,-0.202424 -0.0526748,-0.312159z"/>
  <path class="fil0" d="M15.5579 8.83253l0.22903 0c0.0392682,0 0.0668263,-0.00198617 0.082757,-0.00583437 0.0280132,-0.00686883 0.0515162,-0.0182479 0.0703434,-0.0340959 0.0188272,-0.0159721 0.0343028,-0.0390613 0.0464267,-0.0695573 0.0121239,-0.0305373 0.0182479,-0.0655849 0.0182479,-0.10535 0,-0.0466336 -0.00889638,-0.0871017 -0.0263995,-0.121446 -0.0176686,-0.0343442 -0.0420406,-0.0585919 -0.0731572,-0.0725779 -0.0310753,-0.0139859 -0.0760537,-0.0208134 -0.134563,-0.0208134l-0.212685 0 0 0.429674zm0 -0.57723l0.198824 0c0.0539989,0 0.0926878,-0.00484128 0.116149,-0.0143583 0.0309925,-0.0125377 0.0541645,-0.0333511 0.0699297,-0.0624402 0.0157652,-0.0289649 0.023503,-0.0652953 0.023503,-0.109074 0,-0.0414613 -0.00728262,-0.0779571 -0.0218892,-0.109612 -0.0147307,-0.031489 -0.0356269,-0.0530472 -0.0627712,-0.064716 -0.0271443,-0.0117101 -0.0738606,-0.0175445 -0.139983,-0.0175445l-0.183762 0 0 0.377744zm-0.121736 0.72491l0 -1.25021 0.345055 0c0.0703848,0 0.126701,0.0127032 0.169197,0.0379441 0.0424543,0.025365 0.0755985,0.0643022 0.0996808,0.116894 0.0240823,0.0525921 0.036082,0.10746 0.036082,0.165059 0,0.0533369 -0.0106757,0.103653 -0.0319856,0.150825 -0.0213099,0.0471715 -0.0535852,0.0852397 -0.0966188,0.114329 0.0556127,0.0220961 0.0983567,0.0598747 0.128315,0.11346 0.0299167,0.0533369 0.0448129,0.11648 0.0448129,0.189182 0,0.0585919 -0.00906189,0.113046 -0.0273098,0.163238 -0.0180824,0.0504404 -0.0405923,0.089212 -0.0674469,0.116605 -0.0266891,0.0270615 -0.0602885,0.0478749 -0.100591,0.0616953 -0.0404268,0.0138618 -0.0899155,0.0209789 -0.148425,0.0209789l-0.350766 0z"/>
  <polygon class="fil0" points="17.3471,8.98021 17.3471,7.73 17.4689,7.73 17.4689,8.98021 "/>
  <polygon class="fil0" points="18.7066,8.98021 18.7066,7.73 18.8282,7.73 18.8282,8.83253 19.2813,8.83253 19.2813,8.98021 "/>
  <polygon class="fil0" points="20.4568,8.98021 20.4568,7.73 21.122,7.73 21.122,7.87756 20.5786,7.87756 20.5786,8.26047 21.0874,8.26047 21.0874,8.40716 20.5786,8.40716 20.5786,8.83253 21.1432,8.83253 21.1432,8.98021 "/>
  <path class="fil0" d="M23.6833 8.57851l0.114743 -0.0136963c0.00542058,0.0625643 0.0182479,0.113874 0.0381096,0.153928 0.0196962,0.0400544 0.0504818,0.0724537 0.0923982,0.0972395 0.0419164,0.0248271 0.0890465,0.0370751 0.141142,0.0370751 0.0464267,0 0.0875983,-0.0094343 0.123225,-0.028096 0.0353372,-0.0187858 0.0619022,-0.0444819 0.0792398,-0.0771295 0.017379,-0.0327718 0.0261512,-0.0683987 0.0261512,-0.10717 0,-0.0390613 -0.00848259,-0.0732813 -0.0252409,-0.10266 -0.0166342,-0.0293374 -0.0442336,-0.0538748 -0.0827984,-0.0738192 -0.0247857,-0.0129928 -0.0792398,-0.0333511 -0.163776,-0.0608678 -0.0844949,-0.0275167 -0.14379,-0.0536265 -0.177638,-0.0779985 -0.0437784,-0.0313649 -0.0765088,-0.0701366 -0.0981084,-0.116439 -0.0215996,-0.0463439 -0.0322752,-0.0982325 -0.0322752,-0.155542 4.13785e-005,-0.0633091 0.0131584,-0.122191 0.0394337,-0.177059 0.0264409,-0.0547437 0.0649642,-0.0964947 0.115322,-0.12488 0.0508128,-0.0285098 0.107005,-0.042744 0.169031,-0.042744 0.0680262,0 0.128315,0.0151032 0.180286,0.0447302 0.0521369,0.029958 0.0921085,0.0738606 0.120287,0.131873 0.0280132,0.0580127 0.0430336,0.123598 0.0451026,0.196879l-0.116646 0.0119584c-0.00624815,-0.0789915 -0.0275995,-0.138577 -0.0639298,-0.179045 -0.0360407,-0.040344 -0.0895017,-0.060454 -0.160135,-0.060454 -0.073571,0 -0.12728,0.0182479 -0.161004,0.0550334 -0.0337235,0.0364958 -0.0505231,0.0806881 -0.0505231,0.132577 0,0.0447715 0.0119998,0.0818467 0.0359165,0.11077 0.0233789,0.0289236 0.0845363,0.0587161 0.183472,0.0890879 0.0988532,0.030496 0.166714,0.0570196 0.203665,0.0798191 0.0534196,0.0335166 0.0929775,0.0760123 0.118674,0.127446 0.0252409,0.0514748 0.0381096,0.110646 0.0381096,0.177762 0,0.066578 -0.0139032,0.129308 -0.0420406,0.188024 -0.0280132,0.0588816 -0.0683159,0.104646 -0.120742,0.137294 -0.0523852,0.0326476 -0.111681,0.0490335 -0.177348,0.0490335 -0.0832122,0 -0.152976,-0.0163859 -0.209168,-0.0494473 -0.056192,-0.0329373 -0.100467,-0.0825501 -0.132411,-0.148838 -0.0319442,-0.0661642 -0.0490335,-0.141101 -0.0505231,-0.224644z"/>
  <path class="fil0" d="M25.869 8.98021l0 -0.529603 -0.354283 -0.720607 0.147887 0 0.181279 0.376917c0.0335993,0.0704262 0.0647987,0.140977 0.0935568,0.211568 0.027765,-0.0654608 0.0610333,-0.139156 0.100426,-0.220961l0.178093 -0.367524 0.142052 0 -0.367276 0.720607 0 0.529603 -0.121736 0z"/>
  <path class="fil0" d="M27.4538 8.57851l0.114743 -0.0136963c0.0053792,0.0625643 0.0182479,0.113874 0.0380682,0.153928 0.0197375,0.0400544 0.0505231,0.0724537 0.0923982,0.0972395 0.0420819,0.0248271 0.0890465,0.0370751 0.141183,0.0370751 0.0465508,0 0.0875569,-0.0094343 0.123184,-0.028096 0.0353372,-0.0187858 0.0619022,-0.0444819 0.0792812,-0.0771295 0.017379,-0.0327718 0.0261098,-0.0683987 0.0261098,-0.10717 4.13785e-005,-0.0390613 -0.00844121,-0.0732813 -0.0252409,-0.10266 -0.0164686,-0.0293374 -0.0442336,-0.0538748 -0.082757,-0.0738192 -0.0248271,-0.0129928 -0.0792812,-0.0333511 -0.163776,-0.0608678 -0.0845363,-0.0275167 -0.14379,-0.0536265 -0.177514,-0.0779985 -0.043944,-0.0313649 -0.076633,-0.0701366 -0.0982325,-0.116439 -0.0215996,-0.0463439 -0.0322752,-0.0982325 -0.0322752,-0.155542 0,-0.0633091 0.013117,-0.122191 0.0393923,-0.177059 0.0264409,-0.0547437 0.0649642,-0.0964947 0.115487,-0.12488 0.0506473,-0.0285098 0.106839,-0.042744 0.168907,-0.042744 0.0681504,0 0.128273,0.0151032 0.180245,0.0447302 0.0523024,0.029958 0.0921085,0.0738606 0.120287,0.131873 0.0280546,0.0580127 0.043075,0.123598 0.0451026,0.196879l-0.116605 0.0119584c-0.00628953,-0.0789915 -0.0275995,-0.138577 -0.0638056,-0.179045 -0.0360407,-0.040344 -0.0896258,-0.060454 -0.1603,-0.060454 -0.073571,0 -0.12728,0.0182479 -0.161004,0.0550334 -0.0336821,0.0364958 -0.0504818,0.0806881 -0.0504818,0.132577 0,0.0447715 0.0119584,0.0818467 0.0359165,0.11077 0.0233375,0.0289236 0.0844949,0.0587161 0.183472,0.0890879 0.0988532,0.030496 0.166714,0.0570196 0.203624,0.0798191 0.053461,0.0335166 0.0929775,0.0760123 0.118674,0.127446 0.0252823,0.0514748 0.0381096,0.110646 0.0381096,0.177762 0,0.066578 -0.0138618,0.129308 -0.0420406,0.188024 -0.0280132,0.0588816 -0.0683159,0.104646 -0.120701,0.137294 -0.0524266,0.0326476 -0.111681,0.0490335 -0.17739,0.0490335 -0.0831708,0 -0.152976,-0.0163859 -0.209168,-0.0494473 -0.056192,-0.0329373 -0.100426,-0.0825501 -0.132411,-0.148838 -0.0319442,-0.0661642 -0.0490335,-0.141101 -0.0504818,-0.224644z"/>
  <polygon class="fil0" points="29.6145,8.98021 29.6145,7.87756 29.3113,7.87756 29.3113,7.73 30.0405,7.73 30.0405,7.87756 29.7361,7.87756 29.7361,8.98021 "/>
  <polygon class="fil0" points="31.1959,8.98021 31.1959,7.73 31.8611,7.73 31.8611,7.87756 31.3176,7.87756 31.3176,8.26047 31.8266,8.26047 31.8266,8.40716 31.3176,8.40716 31.3176,8.83253 31.8825,8.83253 31.8825,8.98021 "/>
  <path class="fil0" d="M33.0751 8.98021l0 -1.25021 0.183058 0 0.217775 0.885252c0.0200272,0.082426 0.0347579,0.143997 0.0438198,0.185045 0.0106343,-0.0455991 0.0268546,-0.112343 0.0490335,-0.200437l0.220299 -0.869859 0.163776 0 0 1.25021 -0.117391 0 0 -1.04634 -0.267264 1.04634 -0.109777 0 -0.266271 -1.0643 0 1.0643 -0.11706 0z"/>
  <path class="fil0" d="M35.136 8.57851l0.114743 -0.0136963c0.00542058,0.0625643 0.0182479,0.113874 0.0381096,0.153928 0.0196962,0.0400544 0.0504818,0.0724537 0.0923982,0.0972395 0.0419164,0.0248271 0.0890465,0.0370751 0.141142,0.0370751 0.0465508,0 0.0875983,-0.0094343 0.123225,-0.028096 0.0353372,-0.0187858 0.0618609,-0.0444819 0.0792398,-0.0771295 0.017379,-0.0327718 0.0261512,-0.0683987 0.0261512,-0.10717 0,-0.0390613 -0.00848259,-0.0732813 -0.0252823,-0.10266 -0.0166342,-0.0293374 -0.0442336,-0.0538748 -0.082757,-0.0738192 -0.0247857,-0.0129928 -0.0792398,-0.0333511 -0.163776,-0.0608678 -0.0844949,-0.0275167 -0.14379,-0.0536265 -0.177638,-0.0779985 -0.0437784,-0.0313649 -0.0765088,-0.0701366 -0.0981084,-0.116439 -0.0215996,-0.0463439 -0.0322752,-0.0982325 -0.0322752,-0.155542 4.13785e-005,-0.0633091 0.0131584,-0.122191 0.0394337,-0.177059 0.0264409,-0.0547437 0.0649642,-0.0964947 0.115322,-0.12488 0.0508128,-0.0285098 0.107005,-0.042744 0.169031,-0.042744 0.0680262,0 0.128315,0.0151032 0.180286,0.0447302 0.0520955,0.029958 0.0921085,0.0738606 0.120287,0.131873 0.0280132,0.0580127 0.0430336,0.123598 0.0451026,0.196879l-0.116646 0.0119584c-0.00624815,-0.0789915 -0.0275995,-0.138577 -0.0638056,-0.179045 -0.0361648,-0.040344 -0.0896258,-0.060454 -0.160259,-0.060454 -0.073571,0 -0.12728,0.0182479 -0.161004,0.0550334 -0.0337235,0.0364958 -0.0505231,0.0806881 -0.0505231,0.132577 0,0.0447715 0.0119584,0.0818467 0.0359165,0.11077 0.0233789,0.0289236 0.0845363,0.0587161 0.183472,0.0890879 0.0988532,0.030496 0.166714,0.0570196 0.203665,0.0798191 0.0534196,0.0335166 0.0929775,0.0760123 0.118674,0.127446 0.0252409,0.0514748 0.0380682,0.110646 0.0380682,0.177762 4.13785e-005,0.066578 -0.0138618,0.129308 -0.0420406,0.188024 -0.0280132,0.0588816 -0.0683159,0.104646 -0.120701,0.137294 -0.0523852,0.0326476 -0.111681,0.0490335 -0.177348,0.0490335 -0.0832122,0 -0.152976,-0.0163859 -0.20921,-0.0494473 -0.056192,-0.0329373 -0.100426,-0.0825501 -0.13237,-0.148838 -0.0319856,-0.0661642 -0.0490749,-0.141101 -0.0505231,-0.224644z"/>
  <polygon class="fil0" points="9.08862,9.08854 -0,9.08854 -0,0 9.08862,0 "/>
  <path class="fil1" d="M3.5629 4.53442c-0.0409233,0.193941 -0.231306,0.318035 -0.425247,0.277195l-0.321883 -0.0679435c-0.193941,-0.0409233 -0.318035,-0.231306 -0.277112,-0.425247l0.0678607 -0.321966c0.040882,-0.193858 0.231347,-0.317952 0.425205,-0.277112l0.321966 0.0679435c0.1939,0.0409233 0.317952,0.231347 0.277112,0.425247l-0.0679021 0.321883z"/>
  <path class="fil1" d="M5.05542 4.84923c-0.040882,0.193941 -0.231264,0.317952 -0.425288,0.277195l-0.321883 -0.0679849c-0.193941,-0.0409233 -0.318035,-0.231306 -0.27707,-0.425247l0.0678607 -0.321883c0.0409233,-0.193941 0.231306,-0.317952 0.425247,-0.277112l0.321883 0.0679435c0.193941,0.040882 0.318035,0.231264 0.277112,0.425205l-0.0678607 0.321883z"/>
  <path class="fil1" d="M6.46013 5.14554c-0.0409233,0.193858 -0.231306,0.318035 -0.425247,0.277112l-0.321883 -0.0678607c-0.193982,-0.0410475 -0.318035,-0.231347 -0.277112,-0.425371l0.0678607 -0.321801c0.0409233,-0.193982 0.231306,-0.318035 0.425288,-0.277153l0.321925 0.0678607c0.193858,0.0409233 0.317952,0.231389 0.277029,0.42533l-0.0678607 0.321883z"/>
  <path class="fil1" d="M3.28512 5.85146c-0.0409233,0.193858 -0.231264,0.317911 -0.425205,0.277112l-0.321925 -0.0679849c-0.193941,-0.0409233 -0.318035,-0.231389 -0.277112,-0.425247l0.0678607 -0.321883c0.0409233,-0.193858 0.231389,-0.318035 0.42533,-0.277112l0.321883 0.0678607c0.193941,0.040882 0.318035,0.231347 0.277112,0.425371l-0.0679435 0.321883z"/>
  <path class="fil1" d="M4.77764 6.16622c-0.040882,0.193858 -0.231347,0.31787 -0.425205,0.277112l-0.321966 -0.0678607c-0.193858,-0.0410475 -0.317952,-0.231513 -0.27707,-0.425371l0.0678607 -0.321883c0.0409233,-0.1939 0.231389,-0.318035 0.425247,-0.277112l0.321883 0.0678607c0.193941,0.0410475 0.318035,0.231347 0.277195,0.425371l-0.0679435 0.321883z"/>
  <path class="fil1" d="M6.18236 6.46245c-0.040882,0.193858 -0.231264,0.31787 -0.425205,0.277112l-0.321883 -0.0678607c-0.194024,-0.0410475 -0.318035,-0.231389 -0.277153,-0.425371l0.0679435 -0.321883c0.0408406,-0.1939 0.231223,-0.317911 0.425247,-0.277153l0.321883 0.0678607c0.193941,0.0410475 0.317952,0.231513 0.277029,0.425371l-0.0678607 0.321925z"/>
  <path class="fil1" d="M3.00743 7.16837c-0.0409647,0.193858 -0.231347,0.31787 -0.425288,0.277112l-0.321883 -0.0679849c-0.193941,-0.0409233 -0.318035,-0.231389 -0.277153,-0.425247l0.0679435 -0.321883c0.0408406,-0.193858 0.231306,-0.318035 0.425247,-0.277153l0.321883 0.0679021c0.193941,0.0410475 0.318035,0.231347 0.277112,0.425371l-0.0678607 0.321883z"/>
  <path class="fil1" d="M4.49991 7.48314c-0.0409233,0.193858 -0.231306,0.31787 -0.425247,0.277112l-0.321883 -0.0678607c-0.193941,-0.0410475 -0.318035,-0.231389 -0.277112,-0.425371l0.0678607 -0.321883c0.040882,-0.1939 0.231347,-0.317911 0.425205,-0.277153l0.321966 0.0678607c0.193858,0.0410475 0.317952,0.231389 0.277112,0.425371l-0.0679021 0.321925z"/>
  <path class="fil1" d="M5.90463 7.77932c-0.0409233,0.1939 -0.231306,0.318035 -0.425247,0.277153l-0.321883 -0.0678607c-0.193941,-0.0410888 -0.318035,-0.231389 -0.277112,-0.425371l0.0679021 -0.321925c0.0408406,-0.193858 0.231223,-0.31787 0.425247,-0.277112l0.321883 0.0680262c0.193941,0.040882 0.317952,0.231347 0.27707,0.425205l-0.0678607 0.321883z"/>
  <path class="fil1" d="M6.76336 3.63539c-0.0409233,0.193941 -0.231347,0.318035 -0.42533,0.27707l-3.20452 -0.675794c-0.193858,-0.0409647 -0.317952,-0.231347 -0.277112,-0.425288l0.296311 -1.40472c0.040882,-0.193941 0.231264,-0.318035 0.425205,-0.27707l3.20456 0.675794c0.193941,0.0409647 0.318035,0.231347 0.277112,0.425247l-0.296229 1.40476z"/>
  <path class="fil2 str0" d="M6.49299 7.59817c-0.129473,0.613974 -0.717379,1.00997 -1.31311,0.884258l-2.8763 -0.606733c-0.595726,-0.125418 -0.973636,-0.725158 -0.844121,-1.33913l1.06173 -5.03403c0.129515,-0.61414 0.717379,-1.01001 1.31311,-0.884424l2.8763 0.60665c0.595685,0.125666 0.973636,0.725324 0.844121,1.33934l-1.06173 5.03407z"/>
  <path class="fil2 str0" d="M6.88832 1.23138l0.0513507 -0.243637c0.0443577,-0.210244 0.28005,-0.338476 0.526583,-0.286505l0 0c0.246492,0.0520128 0.410309,0.264574 0.365951,0.474777l-0.421647 1.99957"/>
 </g>
</svg>
